<?xml version="1.0" encoding="UTF-8"?>
<svg id="Layer_2" data-name="Layer 2" xmlns="http://www.w3.org/2000/svg" viewBox="0 0 632.52 600.67">
  <defs>
    <style>
      .cls-1 {
        fill: #4b4847;
      }
    </style>
  </defs>
  <g id="Capa_1" data-name="Capa 1">
    <path class="cls-1" d="M443.25,0c-33.08,0-64.81,13.14-88.2,36.54l-92.6,92.6c-3.41,3.41-5.35,8.04-5.35,12.86v38.2h-38.13c-4.82,0-9.46,1.88-12.87,5.29l-90.97,90.97c-24.64,24.63-38.22,57.42-38.22,92.29v146.11c0,5.69-2.23,11.08-6.24,15.14L0,600.67h63.7l38.16-38.16c4.42-4.42,10.42-6.89,16.67-6.89h145.44c34.81,0,67.58-13.59,92.28-38.23l90.74-90.74c3.41-3.41,5.32-8.03,5.32-12.86v-38.37h38.4c4.82,0,9.44-1.94,12.86-5.35l92.4-92.4c23.4-23.39,36.54-44.01,36.54-77.09V0h-189.26ZM121.95,367.53c0-21.73,8.81-43,24.15-58.34l35.92-35.92v136.48c0,5.73-2.2,11.1-6.23,15.13l-53.84,53.84v-111.19ZM323.53,486.35c-15.46,15.46-35.99,24.09-57.85,24.22h-111.88s53.84-53.84,53.84-53.84c4.08-4.03,9.45-6.23,15.14-6.23h136.6l-35.85,35.85ZM482.35,318.84c0,5.73-2.27,10.97-6.3,14.99l-65.32,65.32c-3.95,3.99-9.46,6.3-15.12,6.3h-168.54v-168.49c0-5.74,2.18-10.92,6.2-14.94l65.59-65.59c3.95-3.99,9.31-6.26,14.97-6.26h168.52v168.67ZM501.77,98.9c-4.08,4.03-9.45,6.21-15.14,6.21h-136.46l43.64-43.63c10.55-10.55,24.86-16.43,39.78-16.43h122.02l-53.85,53.85ZM587.47,198.19c0,14.92-4.99,29.21-15.54,39.76l-44.53,44.53v-136.7c0-5.65,2.26-11.07,6.26-15.06l53.83-53.83-.02,121.3Z"/>
  </g>
</svg>