<?xml version="1.0" encoding="UTF-8"?>
<svg id="Layer_2" data-name="Layer 2" xmlns="http://www.w3.org/2000/svg" viewBox="0 0 678.68 140.59">
  <defs>
    <style>
      .cls-1 {
        fill: #4b4847;
      }
    </style>
  </defs>
  <g id="Capa_1" data-name="Capa 1">
    <g>
      <path class="cls-1" d="M329.6,137.7V35.56h19.26v12.07h7.43l.27-.55c1.89-3.82,4.62-6.73,8.1-8.67,3.89-2.16,9-3.26,15.2-3.26h5.82v18.25h-14.56c-6.59,0-11.95,1.83-15.94,5.44-3.93,3.57-5.92,9.29-5.92,17.02v61.84h-19.66Z"/>
      <rect class="cls-1" x="507.31" y="35.55" width="19.67" height="102.15"/>
      <path class="cls-1" d="M621.55,137.7v-60.23c0-9.19-2.26-15.89-6.73-19.93-4.52-4.08-10.76-6.15-18.55-6.15-8.95,0-16.31,2.92-21.89,8.68-5.59,5.78-8.42,14.61-8.42,26.26v51.38h-19.66V35.56h19.26v16.7h7.49l.28-.52c5.84-10.85,18.04-18.14,30.37-18.14,5.94.01,11.92,1.67,17.37,4.81,6.01,3.45,11.22,8.64,14.66,14.6,3.64,6.3,5.48,14.13,5.48,23.27v61.44h-19.66Z"/>
      <path class="cls-1" d="M427.2,140.25c-5.67,0-11.3-1.18-16.73-3.51-5.92-2.54-10.66-6.28-14.09-11.13-3.43-4.87-5.17-10.85-5.17-17.78s1.75-13.03,5.21-17.72c3.42-4.62,8.16-8.15,14.11-10.5,5.82-2.28,12.41-3.44,19.6-3.44h31.31v-5.37c0-6.41-1.88-11.5-5.58-15.14-.65-.65-1.37-1.24-2.13-1.75-4.42-2.38-9.48-3.57-15.13-3.57-5.16,0-9.69.92-13.44,2.75-1.92.93-3.59,2.05-5.12,3.42-2.28,2.05-4,4.85-5.12,8.32-.35,1.08-.64,2.25-.88,3.47h-19.99c.16-1.37.36-2.72.62-4.02l.03-.18.04-.13c.91-4.49,2.39-8.54,4.41-12.02,3.65-6.31,8.61-11.16,14.73-14.4,6.07-3.21,13.03-4.84,20.69-4.84h.05c.78,0,1.54,0,2.28.03.72-.03,1.46-.03,2.21-.03h.07c13.05,0,23.36,3.45,30.66,10.25l.18.18c.14.14.29.28.43.44,6.95,6.8,10.45,16.29,10.45,28.23v44.46c0,3.03,1.01,4.16,3.74,4.16h7.27v17.25h-9.66c-2.42,0-4.66-.35-6.65-1.04-2.02-.73-3.81-1.8-5.3-3.19-.5-.47-.9-.9-1.26-1.32-1.89-2.23-3-5-3.3-8.24l-.08-.9h-7.18l-.29.46c-6.86,10.68-18.15,16.8-30.99,16.8ZM430.72,92.82c-5.9,0-10.79,1.28-14.54,3.81-3.62,2.44-5.31,5.88-5.31,10.81s1.77,8.58,5.56,11.37c3.9,2.82,9.05,4.25,15.3,4.25,8.84,0,16.09-2.63,21.54-7.83,5.3-5.05,8.04-12.26,8.16-21.41v-1.01s-30.71,0-30.71,0Z"/>
      <path class="cls-1" d="M247.61,140.59c-.62,0-1.25-.01-1.87-.04-39.58-1.86-57.61-37.51-57.61-69.84,0-20.26,5.78-37.65,16.72-50.29C216.08,7.41,232.26.36,251.64.02c.51-.02.99-.02,1.48-.02h.03c10.75,0,20.31,1.99,28.42,5.91,13.69,6.63,22.76,18.61,26.23,34.65.23.95.42,1.97.62,3.22l.36,2.18h-20.8l-.31-1.5c-3.64-17.27-15.7-26.4-34.88-26.4-11.94,0-21.72,3.48-29.07,10.34-9.76,9.09-14.93,23.71-14.93,42.29,0,30.93,17.46,51.72,43.45,51.72,5.76,0,10.99-.85,15.55-2.53,6.61-2.43,12.32-6.95,16.09-12.71,4.43-6.78,5.55-14.38,6.04-20.24.04-.43.05-.69.05-.96.03-.71.03-1.39.03-2.05q0-1-7.16-1h-32.3v-18.31h59.72v73.06h-19.05v-17.74h-7.59l-.29.5c-7.06,12.25-21.08,20.17-35.73,20.17Z"/>
      <path class="cls-1" d="M517.13,26.01c-7.33,0-13.29-5.96-13.29-13.29v-4.72h26.57v4.72c0,7.33-5.96,13.29-13.29,13.29Z"/>
      <g>
        <polygon class="cls-1" points="641.22 10.71 646.71 10.71 646.71 26.23 649.99 26.23 649.99 10.71 655.52 10.71 655.52 8 641.22 8 641.22 10.71"/>
        <polygon class="cls-1" points="674.1 8 668.72 22.71 663.17 8 658.48 8 658.48 26.23 661.57 26.23 661.57 13.88 662.4 13.88 667.19 26.23 669.97 26.23 674.76 13.88 675.58 13.88 675.58 26.23 678.68 26.23 678.68 8 674.1 8"/>
      </g>
      <path class="cls-1" d="M101.54.09c-7.58,0-14.85,3.01-20.21,8.37l-21.21,21.21c-.78.78-1.22,1.84-1.22,2.95v8.75h-8.74c-1.1,0-2.17.43-2.95,1.21l-20.84,20.84c-5.64,5.64-8.76,13.15-8.76,21.14v33.47c0,1.3-.51,2.54-1.43,3.47L0,137.69h14.59l8.74-8.74c1.01-1.01,2.39-1.58,3.82-1.58h33.32c7.97,0,15.48-3.11,21.14-8.76l20.79-20.79c.78-.78,1.22-1.84,1.22-2.94v-8.79h8.8c1.1,0,2.16-.44,2.94-1.23l21.17-21.17c5.36-5.36,8.37-10.08,8.37-17.66V.09h-43.36ZM27.94,84.28c0-4.98,2.02-9.85,5.53-13.37l8.23-8.23v31.26c0,1.31-.5,2.54-1.43,3.47l-12.33,12.33v-25.47ZM74.12,111.5c-3.54,3.54-8.24,5.52-13.25,5.55h-25.63s12.33-12.33,12.33-12.33c.93-.92,2.16-1.43,3.47-1.43h31.29l-8.21,8.21ZM110.5,73.13c0,1.31-.52,2.51-1.44,3.43l-14.96,14.96c-.9.91-2.17,1.44-3.46,1.44h-38.61v-38.6c0-1.31.5-2.5,1.42-3.42l15.03-15.03c.9-.91,2.13-1.43,3.43-1.43h38.61v38.64ZM114.94,22.75c-.93.92-2.16,1.42-3.47,1.42h-31.26l10-10c2.42-2.42,5.7-3.76,9.11-3.76h27.95l-12.34,12.34ZM134.58,45.49c0,3.42-1.14,6.69-3.56,9.11l-10.2,10.2v-31.32c0-1.29.52-2.54,1.43-3.45l12.33-12.33v27.79Z"/>
    </g>
  </g>
</svg>